<mxfile host="app.diagrams.net" agent="Mozilla/5.0 (X11; Linux x86_64) AppleWebKit/537.36 (KHTML, like Gecko) Chrome/129.0.0.0 Safari/537.36" version="24.8.0">
  <diagram name="Page-1" id="Mj6lzmNs4eIf5IuF4uNA">
    <mxGraphModel dx="2280" dy="1872" grid="1" gridSize="10" guides="1" tooltips="1" connect="1" arrows="1" fold="1" page="1" pageScale="1" pageWidth="850" pageHeight="1100" math="0" shadow="0">
      <root>
        <mxCell id="0" />
        <mxCell id="1" parent="0" />
        <mxCell id="8dTqEl9wyZg5WzftWE0f-33" value="Registro" style="shape=table;startSize=30;container=1;collapsible=1;childLayout=tableLayout;fixedRows=1;rowLines=0;fontStyle=1;align=center;resizeLast=1;html=1;" parent="1" vertex="1">
          <mxGeometry x="-510" y="-310" width="180" height="210" as="geometry" />
        </mxCell>
        <mxCell id="8dTqEl9wyZg5WzftWE0f-34" value="" style="shape=tableRow;horizontal=0;startSize=0;swimlaneHead=0;swimlaneBody=0;fillColor=none;collapsible=0;dropTarget=0;points=[[0,0.5],[1,0.5]];portConstraint=eastwest;top=0;left=0;right=0;bottom=1;" parent="8dTqEl9wyZg5WzftWE0f-33" vertex="1">
          <mxGeometry y="30" width="180" height="30" as="geometry" />
        </mxCell>
        <mxCell id="8dTqEl9wyZg5WzftWE0f-35" value="PK" style="shape=partialRectangle;connectable=0;fillColor=none;top=0;left=0;bottom=0;right=0;fontStyle=1;overflow=hidden;whiteSpace=wrap;html=1;" parent="8dTqEl9wyZg5WzftWE0f-34" vertex="1">
          <mxGeometry width="30" height="30" as="geometry">
            <mxRectangle width="30" height="30" as="alternateBounds" />
          </mxGeometry>
        </mxCell>
        <mxCell id="8dTqEl9wyZg5WzftWE0f-36" value="RegistroId" style="shape=partialRectangle;connectable=0;fillColor=none;top=0;left=0;bottom=0;right=0;align=left;spacingLeft=6;fontStyle=5;overflow=hidden;whiteSpace=wrap;html=1;" parent="8dTqEl9wyZg5WzftWE0f-34" vertex="1">
          <mxGeometry x="30" width="150" height="30" as="geometry">
            <mxRectangle width="150" height="30" as="alternateBounds" />
          </mxGeometry>
        </mxCell>
        <mxCell id="8dTqEl9wyZg5WzftWE0f-37" value="" style="shape=tableRow;horizontal=0;startSize=0;swimlaneHead=0;swimlaneBody=0;fillColor=none;collapsible=0;dropTarget=0;points=[[0,0.5],[1,0.5]];portConstraint=eastwest;top=0;left=0;right=0;bottom=0;" parent="8dTqEl9wyZg5WzftWE0f-33" vertex="1">
          <mxGeometry y="60" width="180" height="30" as="geometry" />
        </mxCell>
        <mxCell id="8dTqEl9wyZg5WzftWE0f-38" value="" style="shape=partialRectangle;connectable=0;fillColor=none;top=0;left=0;bottom=0;right=0;editable=1;overflow=hidden;whiteSpace=wrap;html=1;" parent="8dTqEl9wyZg5WzftWE0f-37" vertex="1">
          <mxGeometry width="30" height="30" as="geometry">
            <mxRectangle width="30" height="30" as="alternateBounds" />
          </mxGeometry>
        </mxCell>
        <mxCell id="8dTqEl9wyZg5WzftWE0f-39" value="Tipo: int" style="shape=partialRectangle;connectable=0;fillColor=none;top=0;left=0;bottom=0;right=0;align=left;spacingLeft=6;overflow=hidden;whiteSpace=wrap;html=1;" parent="8dTqEl9wyZg5WzftWE0f-37" vertex="1">
          <mxGeometry x="30" width="150" height="30" as="geometry">
            <mxRectangle width="150" height="30" as="alternateBounds" />
          </mxGeometry>
        </mxCell>
        <mxCell id="8dTqEl9wyZg5WzftWE0f-40" value="" style="shape=tableRow;horizontal=0;startSize=0;swimlaneHead=0;swimlaneBody=0;fillColor=none;collapsible=0;dropTarget=0;points=[[0,0.5],[1,0.5]];portConstraint=eastwest;top=0;left=0;right=0;bottom=0;" parent="8dTqEl9wyZg5WzftWE0f-33" vertex="1">
          <mxGeometry y="90" width="180" height="30" as="geometry" />
        </mxCell>
        <mxCell id="8dTqEl9wyZg5WzftWE0f-41" value="" style="shape=partialRectangle;connectable=0;fillColor=none;top=0;left=0;bottom=0;right=0;editable=1;overflow=hidden;whiteSpace=wrap;html=1;" parent="8dTqEl9wyZg5WzftWE0f-40" vertex="1">
          <mxGeometry width="30" height="30" as="geometry">
            <mxRectangle width="30" height="30" as="alternateBounds" />
          </mxGeometry>
        </mxCell>
        <mxCell id="8dTqEl9wyZg5WzftWE0f-42" value="Valor: float" style="shape=partialRectangle;connectable=0;fillColor=none;top=0;left=0;bottom=0;right=0;align=left;spacingLeft=6;overflow=hidden;whiteSpace=wrap;html=1;" parent="8dTqEl9wyZg5WzftWE0f-40" vertex="1">
          <mxGeometry x="30" width="150" height="30" as="geometry">
            <mxRectangle width="150" height="30" as="alternateBounds" />
          </mxGeometry>
        </mxCell>
        <mxCell id="8dTqEl9wyZg5WzftWE0f-43" value="" style="shape=tableRow;horizontal=0;startSize=0;swimlaneHead=0;swimlaneBody=0;fillColor=none;collapsible=0;dropTarget=0;points=[[0,0.5],[1,0.5]];portConstraint=eastwest;top=0;left=0;right=0;bottom=0;" parent="8dTqEl9wyZg5WzftWE0f-33" vertex="1">
          <mxGeometry y="120" width="180" height="30" as="geometry" />
        </mxCell>
        <mxCell id="8dTqEl9wyZg5WzftWE0f-44" value="" style="shape=partialRectangle;connectable=0;fillColor=none;top=0;left=0;bottom=0;right=0;editable=1;overflow=hidden;whiteSpace=wrap;html=1;" parent="8dTqEl9wyZg5WzftWE0f-43" vertex="1">
          <mxGeometry width="30" height="30" as="geometry">
            <mxRectangle width="30" height="30" as="alternateBounds" />
          </mxGeometry>
        </mxCell>
        <mxCell id="8dTqEl9wyZg5WzftWE0f-45" value="Classificacao: Enum" style="shape=partialRectangle;connectable=0;fillColor=none;top=0;left=0;bottom=0;right=0;align=left;spacingLeft=6;overflow=hidden;whiteSpace=wrap;html=1;" parent="8dTqEl9wyZg5WzftWE0f-43" vertex="1">
          <mxGeometry x="30" width="150" height="30" as="geometry">
            <mxRectangle width="150" height="30" as="alternateBounds" />
          </mxGeometry>
        </mxCell>
        <mxCell id="8dTqEl9wyZg5WzftWE0f-47" value="" style="shape=tableRow;horizontal=0;startSize=0;swimlaneHead=0;swimlaneBody=0;fillColor=none;collapsible=0;dropTarget=0;points=[[0,0.5],[1,0.5]];portConstraint=eastwest;top=0;left=0;right=0;bottom=0;" parent="8dTqEl9wyZg5WzftWE0f-33" vertex="1">
          <mxGeometry y="150" width="180" height="30" as="geometry" />
        </mxCell>
        <mxCell id="8dTqEl9wyZg5WzftWE0f-48" value="" style="shape=partialRectangle;connectable=0;fillColor=none;top=0;left=0;bottom=0;right=0;editable=1;overflow=hidden;" parent="8dTqEl9wyZg5WzftWE0f-47" vertex="1">
          <mxGeometry width="30" height="30" as="geometry">
            <mxRectangle width="30" height="30" as="alternateBounds" />
          </mxGeometry>
        </mxCell>
        <mxCell id="8dTqEl9wyZg5WzftWE0f-49" value="Data: Date" style="shape=partialRectangle;connectable=0;fillColor=none;top=0;left=0;bottom=0;right=0;align=left;spacingLeft=6;overflow=hidden;" parent="8dTqEl9wyZg5WzftWE0f-47" vertex="1">
          <mxGeometry x="30" width="150" height="30" as="geometry">
            <mxRectangle width="150" height="30" as="alternateBounds" />
          </mxGeometry>
        </mxCell>
        <mxCell id="8dTqEl9wyZg5WzftWE0f-51" value="" style="shape=tableRow;horizontal=0;startSize=0;swimlaneHead=0;swimlaneBody=0;fillColor=none;collapsible=0;dropTarget=0;points=[[0,0.5],[1,0.5]];portConstraint=eastwest;top=0;left=0;right=0;bottom=0;" parent="8dTqEl9wyZg5WzftWE0f-33" vertex="1">
          <mxGeometry y="180" width="180" height="30" as="geometry" />
        </mxCell>
        <mxCell id="8dTqEl9wyZg5WzftWE0f-52" value="" style="shape=partialRectangle;connectable=0;fillColor=none;top=0;left=0;bottom=0;right=0;editable=1;overflow=hidden;" parent="8dTqEl9wyZg5WzftWE0f-51" vertex="1">
          <mxGeometry width="30" height="30" as="geometry">
            <mxRectangle width="30" height="30" as="alternateBounds" />
          </mxGeometry>
        </mxCell>
        <mxCell id="8dTqEl9wyZg5WzftWE0f-53" value="DataCadastro: Date" style="shape=partialRectangle;connectable=0;fillColor=none;top=0;left=0;bottom=0;right=0;align=left;spacingLeft=6;overflow=hidden;" parent="8dTqEl9wyZg5WzftWE0f-51" vertex="1">
          <mxGeometry x="30" width="150" height="30" as="geometry">
            <mxRectangle width="150" height="30" as="alternateBounds" />
          </mxGeometry>
        </mxCell>
        <mxCell id="8dTqEl9wyZg5WzftWE0f-63" value="" style="rounded=0;whiteSpace=wrap;html=1;fillColor=#fff2cc;strokeColor=#d6b656;" parent="1" vertex="1">
          <mxGeometry x="-150" y="-390" width="660" height="340" as="geometry" />
        </mxCell>
        <mxCell id="8dTqEl9wyZg5WzftWE0f-64" value="Model" style="text;html=1;align=center;verticalAlign=middle;whiteSpace=wrap;rounded=0;" parent="1" vertex="1">
          <mxGeometry x="450" y="-390" width="60" height="30" as="geometry" />
        </mxCell>
        <mxCell id="8dTqEl9wyZg5WzftWE0f-60" value="" style="rounded=0;whiteSpace=wrap;html=1;fillColor=#f8cecc;strokeColor=#b85450;" parent="1" vertex="1">
          <mxGeometry x="260" y="-380" width="180" height="190" as="geometry" />
        </mxCell>
        <mxCell id="8dTqEl9wyZg5WzftWE0f-3" value="Registro" style="rounded=0;whiteSpace=wrap;html=1;dashed=1;strokeColor=#EA6B66;strokeWidth=2;" parent="1" vertex="1">
          <mxGeometry x="300" y="-340" width="120" height="60" as="geometry" />
        </mxCell>
        <mxCell id="8dTqEl9wyZg5WzftWE0f-62" value="Domain" style="text;html=1;align=center;verticalAlign=middle;whiteSpace=wrap;rounded=0;" parent="1" vertex="1">
          <mxGeometry x="380" y="-380" width="60" height="30" as="geometry" />
        </mxCell>
        <mxCell id="8dTqEl9wyZg5WzftWE0f-65" value="" style="rounded=0;whiteSpace=wrap;html=1;fillColor=#dae8fc;strokeColor=#6c8ebf;" parent="1" vertex="1">
          <mxGeometry x="-140" y="-380" width="380" height="150" as="geometry" />
        </mxCell>
        <mxCell id="8dTqEl9wyZg5WzftWE0f-66" value="Repository" style="text;html=1;align=center;verticalAlign=middle;whiteSpace=wrap;rounded=0;" parent="1" vertex="1">
          <mxGeometry x="180" y="-380" width="60" height="30" as="geometry" />
        </mxCell>
        <mxCell id="8dTqEl9wyZg5WzftWE0f-88" style="edgeStyle=orthogonalEdgeStyle;rounded=0;orthogonalLoop=1;jettySize=auto;html=1;entryX=0.5;entryY=1;entryDx=0;entryDy=0;strokeWidth=2;strokeColor=#7EA6E0;" parent="1" source="8dTqEl9wyZg5WzftWE0f-59" target="8dTqEl9wyZg5WzftWE0f-86" edge="1">
          <mxGeometry relative="1" as="geometry">
            <Array as="points">
              <mxPoint x="-45" y="-420" />
              <mxPoint x="125" y="-420" />
            </Array>
          </mxGeometry>
        </mxCell>
        <mxCell id="8dTqEl9wyZg5WzftWE0f-59" value="RegistroDAO" style="rounded=0;whiteSpace=wrap;html=1;strokeWidth=2;strokeColor=#7EA6E0;" parent="1" vertex="1">
          <mxGeometry x="-120" y="-340" width="150" height="60" as="geometry" />
        </mxCell>
        <mxCell id="8dTqEl9wyZg5WzftWE0f-72" value="" style="rounded=0;whiteSpace=wrap;html=1;fillColor=#dae8fc;strokeColor=#6c8ebf;" parent="1" vertex="1">
          <mxGeometry x="-150" y="-30" width="400" height="120" as="geometry" />
        </mxCell>
        <mxCell id="8dTqEl9wyZg5WzftWE0f-81" value="Controller" style="text;html=1;align=center;verticalAlign=middle;whiteSpace=wrap;rounded=0;" parent="1" vertex="1">
          <mxGeometry x="190" y="-30" width="60" height="30" as="geometry" />
        </mxCell>
        <mxCell id="8dTqEl9wyZg5WzftWE0f-86" value="PostgresDriver" style="rounded=0;whiteSpace=wrap;html=1;fillColor=#f5f5f5;fontColor=#333333;strokeColor=#666666;strokeWidth=2;" parent="1" vertex="1">
          <mxGeometry x="65" y="-510" width="120" height="60" as="geometry" />
        </mxCell>
        <mxCell id="8dTqEl9wyZg5WzftWE0f-91" value="RegistroController" style="rounded=0;whiteSpace=wrap;html=1;strokeColor=#7EA6E0;" parent="1" vertex="1">
          <mxGeometry x="-35" y="-10" width="120" height="60" as="geometry" />
        </mxCell>
        <mxCell id="8dTqEl9wyZg5WzftWE0f-95" style="edgeStyle=orthogonalEdgeStyle;rounded=0;orthogonalLoop=1;jettySize=auto;html=1;entryX=0.5;entryY=1;entryDx=0;entryDy=0;strokeColor=#A680B8;" parent="1" source="8dTqEl9wyZg5WzftWE0f-94" target="8dTqEl9wyZg5WzftWE0f-91" edge="1">
          <mxGeometry relative="1" as="geometry" />
        </mxCell>
        <mxCell id="8dTqEl9wyZg5WzftWE0f-94" value="View" style="rounded=0;whiteSpace=wrap;html=1;fillColor=#e1d5e7;strokeColor=#9673a6;" parent="1" vertex="1">
          <mxGeometry x="-35" y="140" width="120" height="60" as="geometry" />
        </mxCell>
        <mxCell id="8dTqEl9wyZg5WzftWE0f-96" value="" style="rounded=0;whiteSpace=wrap;html=1;strokeColor=#9673a6;fillColor=#e1d5e7;" parent="1" vertex="1">
          <mxGeometry x="-140" y="-210" width="280" height="130" as="geometry" />
        </mxCell>
        <mxCell id="8dTqEl9wyZg5WzftWE0f-97" value="Usecases" style="text;html=1;align=center;verticalAlign=middle;whiteSpace=wrap;rounded=0;" parent="1" vertex="1">
          <mxGeometry x="80" y="-210" width="60" height="30" as="geometry" />
        </mxCell>
        <mxCell id="8dTqEl9wyZg5WzftWE0f-99" style="edgeStyle=orthogonalEdgeStyle;rounded=0;orthogonalLoop=1;jettySize=auto;html=1;entryX=0.5;entryY=1;entryDx=0;entryDy=0;fillColor=#e1d5e7;strokeColor=#9673a6;strokeWidth=2;" parent="1" source="8dTqEl9wyZg5WzftWE0f-98" target="8dTqEl9wyZg5WzftWE0f-59" edge="1">
          <mxGeometry relative="1" as="geometry" />
        </mxCell>
        <mxCell id="8dTqEl9wyZg5WzftWE0f-100" style="edgeStyle=orthogonalEdgeStyle;rounded=0;orthogonalLoop=1;jettySize=auto;html=1;entryX=0.5;entryY=1;entryDx=0;entryDy=0;fillColor=#e1d5e7;strokeColor=#9673a6;strokeWidth=2;" parent="1" source="8dTqEl9wyZg5WzftWE0f-98" target="8dTqEl9wyZg5WzftWE0f-3" edge="1">
          <mxGeometry relative="1" as="geometry">
            <Array as="points">
              <mxPoint x="360" y="-150" />
            </Array>
          </mxGeometry>
        </mxCell>
        <mxCell id="8dTqEl9wyZg5WzftWE0f-98" value="RegistroModel" style="rounded=0;whiteSpace=wrap;html=1;strokeColor=#B5739D;" parent="1" vertex="1">
          <mxGeometry x="-105" y="-180" width="120" height="60" as="geometry" />
        </mxCell>
        <mxCell id="8dTqEl9wyZg5WzftWE0f-101" style="edgeStyle=orthogonalEdgeStyle;rounded=0;orthogonalLoop=1;jettySize=auto;html=1;entryX=0.5;entryY=1;entryDx=0;entryDy=0;fillColor=#dae8fc;strokeColor=#6c8ebf;" parent="1" source="8dTqEl9wyZg5WzftWE0f-91" target="8dTqEl9wyZg5WzftWE0f-98" edge="1">
          <mxGeometry relative="1" as="geometry" />
        </mxCell>
      </root>
    </mxGraphModel>
  </diagram>
</mxfile>
